<svg id="visual" viewBox="0 0 300 300" width="300" height="300" xmlns="http://www.w3.org/2000/svg" xmlns:xlink="http://www.w3.org/1999/xlink" version="1.1"><rect x="0" y="0" width="300" height="300" fill="#333333"></rect><g transform="translate(165.61445873636322 141.84992354652343)"><path d="M74.3 -105.9C93.9 -103.1 105.6 -78.3 105.5 -55.1C105.3 -31.8 93.2 -10.1 97.3 19.3C101.3 48.7 121.5 85.7 114.1 104.6C106.7 123.4 71.7 124.1 42.9 121.2C14.1 118.3 -8.5 111.9 -25.5 100.6C-42.6 89.4 -54.2 73.2 -76.4 59.5C-98.6 45.9 -131.5 34.7 -142.5 15.2C-153.5 -4.3 -142.7 -32.3 -125.2 -51.6C-107.8 -71 -83.6 -81.8 -61.6 -83.5C-39.6 -85.1 -19.8 -77.7 3.8 -83.6C27.4 -89.5 54.8 -108.7 74.3 -105.9" fill="#5848bc"></path></g></svg>