<svg id="visual" viewBox="0 0 300 300" width="300" height="300" xmlns="http://www.w3.org/2000/svg" xmlns:xlink="http://www.w3.org/1999/xlink" version="1.1"><rect x="0" y="0" width="300" height="300" fill="#333333"></rect><g transform="translate(170.608493506018 120.93835050183861)"><path d="M77 -84.6C89.3 -81.5 81.6 -47.2 79 -20.1C76.4 7 78.9 27 77.3 58.5C75.6 90.1 69.9 133.1 50.4 141.4C31 149.7 -2.1 123.3 -35.6 107.1C-69.1 90.9 -103 84.9 -117.1 65.3C-131.3 45.6 -125.7 12.2 -105.4 -4C-85.1 -20.1 -50.1 -19 -30.1 -20.8C-10 -22.6 -5 -27.3 13.7 -43.6C32.4 -59.9 64.7 -87.8 77 -84.6" fill="#4B4F9B"></path></g></svg>