<svg id="visual" viewBox="0 0 1000 450" width="1000" height="450" xmlns="http://www.w3.org/2000/svg" xmlns:xlink="http://www.w3.org/1999/xlink" version="1.1"><rect x="0" y="0" width="1000" height="450" fill="#333333"></rect><path d="M0 160L23.8 156.7C47.7 153.3 95.3 146.7 143 140.2C190.7 133.7 238.3 127.3 286 131.2C333.7 135 381.3 149 428.8 158.2C476.3 167.3 523.7 171.7 571.2 164.7C618.7 157.7 666.3 139.3 714 131.8C761.7 124.3 809.3 127.7 857 128.8C904.7 130 952.3 129 976.2 128.5L1000 128L1000 0L976.2 0C952.3 0 904.7 0 857 0C809.3 0 761.7 0 714 0C666.3 0 618.7 0 571.2 0C523.7 0 476.3 0 428.8 0C381.3 0 333.7 0 286 0C238.3 0 190.7 0 143 0C95.3 0 47.7 0 23.8 0L0 0Z" fill="#4b4f9b"></path><path d="M0 139L23.8 139.3C47.7 139.7 95.3 140.3 143 137.5C190.7 134.7 238.3 128.3 286 125.8C333.7 123.3 381.3 124.7 428.8 128.3C476.3 132 523.7 138 571.2 138.7C618.7 139.3 666.3 134.7 714 131.2C761.7 127.7 809.3 125.3 857 120C904.7 114.7 952.3 106.3 976.2 102.2L1000 98L1000 0L976.2 0C952.3 0 904.7 0 857 0C809.3 0 761.7 0 714 0C666.3 0 618.7 0 571.2 0C523.7 0 476.3 0 428.8 0C381.3 0 333.7 0 286 0C238.3 0 190.7 0 143 0C95.3 0 47.7 0 23.8 0L0 0Z" fill="#5055ab"></path><path d="M0 72L23.8 78.7C47.7 85.3 95.3 98.7 143 99.8C190.7 101 238.3 90 286 89.3C333.7 88.7 381.3 98.3 428.8 101.2C476.3 104 523.7 100 571.2 96.5C618.7 93 666.3 90 714 92.5C761.7 95 809.3 103 857 101.3C904.7 99.7 952.3 88.3 976.2 82.7L1000 77L1000 0L976.2 0C952.3 0 904.7 0 857 0C809.3 0 761.7 0 714 0C666.3 0 618.7 0 571.2 0C523.7 0 476.3 0 428.8 0C381.3 0 333.7 0 286 0C238.3 0 190.7 0 143 0C95.3 0 47.7 0 23.8 0L0 0Z" fill="#555abb"></path><path d="M0 43L23.8 44.3C47.7 45.7 95.3 48.3 143 51C190.7 53.7 238.3 56.3 286 58.5C333.7 60.7 381.3 62.3 428.8 67C476.3 71.7 523.7 79.3 571.2 80C618.7 80.7 666.3 74.3 714 69.2C761.7 64 809.3 60 857 56.3C904.7 52.7 952.3 49.3 976.2 47.7L1000 46L1000 0L976.2 0C952.3 0 904.7 0 857 0C809.3 0 761.7 0 714 0C666.3 0 618.7 0 571.2 0C523.7 0 476.3 0 428.8 0C381.3 0 333.7 0 286 0C238.3 0 190.7 0 143 0C95.3 0 47.7 0 23.8 0L0 0Z" fill="#5a60cb"></path><path d="M0 42L23.8 38.5C47.7 35 95.3 28 143 29.3C190.7 30.7 238.3 40.3 286 44.5C333.7 48.7 381.3 47.3 428.8 42.7C476.3 38 523.7 30 571.2 27.2C618.7 24.3 666.3 26.7 714 31.5C761.7 36.3 809.3 43.7 857 43.5C904.7 43.3 952.3 35.7 976.2 31.8L1000 28L1000 0L976.2 0C952.3 0 904.7 0 857 0C809.3 0 761.7 0 714 0C666.3 0 618.7 0 571.2 0C523.7 0 476.3 0 428.8 0C381.3 0 333.7 0 286 0C238.3 0 190.7 0 143 0C95.3 0 47.7 0 23.8 0L0 0Z" fill="#6066db"></path></svg>