<svg id="visual" viewBox="0 0 1000 400" width="1000" height="400" xmlns="http://www.w3.org/2000/svg" xmlns:xlink="http://www.w3.org/1999/xlink" version="1.1"><rect x="0" y="0" width="1000" height="400" fill="#000000"></rect><defs><linearGradient id="grad1_0" x1="60%" y1="100%" x2="100%" y2="0%"><stop offset="0%" stop-color="#4b4f9b" stop-opacity="1"></stop><stop offset="100%" stop-color="#4b4f9b" stop-opacity="1"></stop></linearGradient></defs><defs><linearGradient id="grad1_1" x1="60%" y1="100%" x2="100%" y2="0%"><stop offset="0%" stop-color="#4b4f9b" stop-opacity="1"></stop><stop offset="100%" stop-color="#323a83" stop-opacity="1"></stop></linearGradient></defs><defs><linearGradient id="grad1_2" x1="60%" y1="100%" x2="100%" y2="0%"><stop offset="0%" stop-color="#14266b" stop-opacity="1"></stop><stop offset="100%" stop-color="#323a83" stop-opacity="1"></stop></linearGradient></defs><defs><linearGradient id="grad1_3" x1="60%" y1="100%" x2="100%" y2="0%"><stop offset="0%" stop-color="#14266b" stop-opacity="1"></stop><stop offset="100%" stop-color="#001454" stop-opacity="1"></stop></linearGradient></defs><defs><linearGradient id="grad1_4" x1="60%" y1="100%" x2="100%" y2="0%"><stop offset="0%" stop-color="#000000" stop-opacity="1"></stop><stop offset="100%" stop-color="#001454" stop-opacity="1"></stop></linearGradient></defs><defs><linearGradient id="grad2_0" x1="0%" y1="100%" x2="40%" y2="0%"><stop offset="0%" stop-color="#4b4f9b" stop-opacity="1"></stop><stop offset="100%" stop-color="#4b4f9b" stop-opacity="1"></stop></linearGradient></defs><defs><linearGradient id="grad2_1" x1="0%" y1="100%" x2="40%" y2="0%"><stop offset="0%" stop-color="#323a83" stop-opacity="1"></stop><stop offset="100%" stop-color="#4b4f9b" stop-opacity="1"></stop></linearGradient></defs><defs><linearGradient id="grad2_2" x1="0%" y1="100%" x2="40%" y2="0%"><stop offset="0%" stop-color="#323a83" stop-opacity="1"></stop><stop offset="100%" stop-color="#14266b" stop-opacity="1"></stop></linearGradient></defs><defs><linearGradient id="grad2_3" x1="0%" y1="100%" x2="40%" y2="0%"><stop offset="0%" stop-color="#001454" stop-opacity="1"></stop><stop offset="100%" stop-color="#14266b" stop-opacity="1"></stop></linearGradient></defs><defs><linearGradient id="grad2_4" x1="0%" y1="100%" x2="40%" y2="0%"><stop offset="0%" stop-color="#001454" stop-opacity="1"></stop><stop offset="100%" stop-color="#000000" stop-opacity="1"></stop></linearGradient></defs><g transform="translate(1000, 400)"><path d="M-400 0C-394.6 -15.6 -389.2 -31.1 -383.2 -46.5C-377.2 -61.9 -370.7 -77.1 -351.5 -86.6C-332.3 -96.2 -300.5 -100 -289.9 -109.9C-279.2 -119.9 -289.9 -135.9 -304.6 -159.9C-319.3 -183.9 -338.2 -215.8 -329.2 -227.2C-320.2 -238.6 -283.4 -229.4 -265.7 -235.4C-248.1 -241.4 -249.6 -262.5 -235.4 -265.7C-221.2 -269 -191.3 -254.3 -171 -247.7C-150.7 -241.1 -140 -242.5 -131.5 -250.6C-123.1 -258.6 -116.8 -273.3 -107.4 -283.3C-98.1 -293.3 -85.5 -298.5 -73.2 -297.1C-61 -295.7 -49 -287.7 -36.9 -303.8C-24.7 -319.8 -12.4 -359.9 0 -400L0 0Z" fill="#000949"></path><path d="M-320 0C-315.7 -12.5 -311.3 -24.9 -306.5 -37.2C-301.8 -49.5 -296.5 -61.7 -281.2 -69.3C-265.8 -76.9 -240.4 -80 -231.9 -87.9C-223.4 -95.9 -231.9 -108.7 -243.7 -127.9C-255.5 -147.1 -270.5 -172.7 -263.4 -181.8C-256.2 -190.9 -226.7 -183.6 -212.6 -188.3C-198.5 -193.1 -199.7 -210 -188.3 -212.6C-177 -215.2 -153 -203.5 -136.8 -198.2C-120.5 -192.9 -112 -194 -105.2 -200.5C-98.4 -206.9 -93.5 -218.7 -86 -226.6C-78.4 -234.6 -68.4 -238.8 -58.6 -237.7C-48.8 -236.6 -39.2 -230.2 -29.5 -243C-19.8 -255.9 -9.9 -287.9 0 -320L0 0Z" fill="#001d60"></path><path d="M-240 0C-236.7 -9.3 -233.5 -18.7 -229.9 -27.9C-226.3 -37.1 -222.4 -46.3 -210.9 -52C-199.4 -57.7 -180.3 -60 -173.9 -66C-167.5 -71.9 -173.9 -81.5 -182.8 -95.9C-191.6 -110.3 -202.9 -129.5 -197.5 -136.3C-192.1 -143.2 -170 -137.7 -159.4 -141.2C-148.8 -144.8 -149.8 -157.5 -141.2 -159.4C-132.7 -161.4 -114.8 -152.6 -102.6 -148.6C-90.4 -144.7 -84 -145.5 -78.9 -150.4C-73.8 -155.2 -70.1 -164 -64.5 -170C-58.8 -176 -51.3 -179.1 -43.9 -178.3C-36.6 -177.4 -29.4 -172.6 -22.1 -182.3C-14.8 -191.9 -7.4 -215.9 0 -240L0 0Z" fill="#243077"></path><path d="M-160 0C-157.8 -6.2 -155.7 -12.5 -153.3 -18.6C-150.9 -24.8 -148.3 -30.8 -140.6 -34.7C-132.9 -38.5 -120.2 -40 -115.9 -44C-111.7 -47.9 -115.9 -54.3 -121.8 -63.9C-127.7 -73.5 -135.3 -86.3 -131.7 -90.9C-128.1 -95.4 -113.3 -91.8 -106.3 -94.2C-99.2 -96.5 -99.8 -105 -94.2 -106.3C-88.5 -107.6 -76.5 -101.7 -68.4 -99.1C-60.3 -96.4 -56 -97 -52.6 -100.2C-49.2 -103.5 -46.7 -109.3 -43 -113.3C-39.2 -117.3 -34.2 -119.4 -29.3 -118.8C-24.4 -118.3 -19.6 -115.1 -14.8 -121.5C-9.9 -127.9 -4.9 -144 0 -160L0 0Z" fill="#3e448f"></path><path d="M-80 0C-78.9 -3.1 -77.8 -6.2 -76.6 -9.3C-75.4 -12.4 -74.1 -15.4 -70.3 -17.3C-66.5 -19.2 -60.1 -20 -58 -22C-55.8 -24 -58 -27.2 -60.9 -32C-63.9 -36.8 -67.6 -43.2 -65.8 -45.4C-64 -47.7 -56.7 -45.9 -53.1 -47.1C-49.6 -48.3 -49.9 -52.5 -47.1 -53.1C-44.2 -53.8 -38.3 -50.9 -34.2 -49.5C-30.1 -48.2 -28 -48.5 -26.3 -50.1C-24.6 -51.7 -23.4 -54.7 -21.5 -56.7C-19.6 -58.7 -17.1 -59.7 -14.6 -59.4C-12.2 -59.1 -9.8 -57.5 -7.4 -60.8C-4.9 -64 -2.5 -72 0 -80L0 0Z" fill="#4b4f9b"></path></g><g transform="translate(0, 0)"><path d="M400 0C344.4 10.1 288.7 20.2 284.9 34.6C281.1 49 329 67.8 348.6 85.9C368.1 104 359.3 121.3 340.3 129.1C321.4 136.8 292.3 135 296.6 155.7C300.9 176.3 338.6 219.5 327.5 226.1C316.5 232.7 256.6 202.8 247 218.8C237.5 234.9 278.3 296.8 265.2 299.4C252.2 302 185.4 245.3 152.2 220.6C119.1 195.8 119.5 203 125.5 239.1C131.4 275.1 142.9 340 134 353.4C125.2 366.8 96 328.7 77.3 313.6C58.6 298.5 50.5 306.4 39.4 324.6C28.3 342.8 14.1 371.4 0 400L0 0Z" fill="#000949"></path><path d="M320 0C275.5 8.1 231 16.1 227.9 27.7C224.9 39.2 263.2 54.3 278.9 68.7C294.5 83.2 287.4 97.1 272.3 103.3C257.1 109.5 233.9 108 237.3 124.5C240.8 141.1 270.9 175.6 262 180.9C253.2 186.2 205.2 162.2 197.6 175.1C190 187.9 222.6 237.4 212.2 239.5C201.8 241.6 148.3 196.2 121.8 176.4C95.2 156.6 95.6 162.4 100.4 191.3C105.2 220.1 114.3 272 107.2 282.7C100.1 293.5 76.8 263 61.8 250.9C46.9 238.8 40.4 245.1 31.5 259.7C22.6 274.3 11.3 297.1 0 320L0 0Z" fill="#001d60"></path><path d="M240 0C206.6 6 173.2 12.1 170.9 20.8C168.6 29.4 197.4 40.7 209.1 51.5C220.9 62.4 215.6 72.8 204.2 77.4C192.8 82.1 175.4 81 178 93.4C180.6 105.8 203.2 131.7 196.5 135.7C189.9 139.6 153.9 121.7 148.2 131.3C142.5 140.9 167 178.1 159.1 179.6C151.3 181.2 111.3 147.2 91.3 132.3C71.4 117.5 71.7 121.8 75.3 143.4C78.9 165.1 85.7 204 80.4 212.1C75.1 220.1 57.6 197.2 46.4 188.2C35.2 179.1 30.3 183.8 23.6 194.8C17 205.7 8.5 222.9 0 240L0 0Z" fill="#243077"></path><path d="M160 0C137.7 4 115.5 8.1 114 13.8C112.4 19.6 131.6 27.1 139.4 34.4C147.3 41.6 143.7 48.5 136.1 51.6C128.6 54.7 116.9 54 118.7 62.3C120.4 70.5 135.5 87.8 131 90.4C126.6 93.1 102.6 81.1 98.8 87.5C95 93.9 111.3 118.7 106.1 119.8C100.9 120.8 74.2 98.1 60.9 88.2C47.6 78.3 47.8 81.2 50.2 95.6C52.6 110.1 57.2 136 53.6 141.4C50.1 146.7 38.4 131.5 30.9 125.4C23.5 119.4 20.2 122.6 15.8 129.8C11.3 137.1 5.7 148.6 0 160L0 0Z" fill="#3e448f"></path><path d="M80 0C68.9 2 57.7 4 57 6.9C56.2 9.8 65.8 13.6 69.7 17.2C73.6 20.8 71.9 24.3 68.1 25.8C64.3 27.4 58.5 27 59.3 31.1C60.2 35.3 67.7 43.9 65.5 45.2C63.3 46.5 51.3 40.6 49.4 43.8C47.5 47 55.7 59.4 53 59.9C50.4 60.4 37.1 49.1 30.4 44.1C23.8 39.2 23.9 40.6 25.1 47.8C26.3 55 28.6 68 26.8 70.7C25 73.4 19.2 65.7 15.5 62.7C11.7 59.7 10.1 61.3 7.9 64.9C5.7 68.6 2.8 74.3 0 80L0 0Z" fill="#4b4f9b"></path></g></svg>