<svg id="visual" viewBox="0 0 1000 400" width="1000" height="400" xmlns="http://www.w3.org/2000/svg" xmlns:xlink="http://www.w3.org/1999/xlink" version="1.1"><rect x="0" y="0" width="1000" height="400" fill="#000000"></rect><defs><linearGradient id="grad1_0" x1="60%" y1="0%" x2="100%" y2="100%"><stop offset="0%" stop-color="#4b4f9b" stop-opacity="1"></stop><stop offset="100%" stop-color="#4b4f9b" stop-opacity="1"></stop></linearGradient></defs><defs><linearGradient id="grad1_1" x1="60%" y1="0%" x2="100%" y2="100%"><stop offset="0%" stop-color="#4b4f9b" stop-opacity="1"></stop><stop offset="100%" stop-color="#323a83" stop-opacity="1"></stop></linearGradient></defs><defs><linearGradient id="grad1_2" x1="60%" y1="0%" x2="100%" y2="100%"><stop offset="0%" stop-color="#14266b" stop-opacity="1"></stop><stop offset="100%" stop-color="#323a83" stop-opacity="1"></stop></linearGradient></defs><defs><linearGradient id="grad1_3" x1="60%" y1="0%" x2="100%" y2="100%"><stop offset="0%" stop-color="#14266b" stop-opacity="1"></stop><stop offset="100%" stop-color="#001454" stop-opacity="1"></stop></linearGradient></defs><defs><linearGradient id="grad1_4" x1="60%" y1="0%" x2="100%" y2="100%"><stop offset="0%" stop-color="#000000" stop-opacity="1"></stop><stop offset="100%" stop-color="#001454" stop-opacity="1"></stop></linearGradient></defs><defs><linearGradient id="grad2_0" x1="0%" y1="0%" x2="40%" y2="100%"><stop offset="0%" stop-color="#4b4f9b" stop-opacity="1"></stop><stop offset="100%" stop-color="#4b4f9b" stop-opacity="1"></stop></linearGradient></defs><defs><linearGradient id="grad2_1" x1="0%" y1="0%" x2="40%" y2="100%"><stop offset="0%" stop-color="#323a83" stop-opacity="1"></stop><stop offset="100%" stop-color="#4b4f9b" stop-opacity="1"></stop></linearGradient></defs><defs><linearGradient id="grad2_2" x1="0%" y1="0%" x2="40%" y2="100%"><stop offset="0%" stop-color="#323a83" stop-opacity="1"></stop><stop offset="100%" stop-color="#14266b" stop-opacity="1"></stop></linearGradient></defs><defs><linearGradient id="grad2_3" x1="0%" y1="0%" x2="40%" y2="100%"><stop offset="0%" stop-color="#001454" stop-opacity="1"></stop><stop offset="100%" stop-color="#14266b" stop-opacity="1"></stop></linearGradient></defs><defs><linearGradient id="grad2_4" x1="0%" y1="0%" x2="40%" y2="100%"><stop offset="0%" stop-color="#001454" stop-opacity="1"></stop><stop offset="100%" stop-color="#000000" stop-opacity="1"></stop></linearGradient></defs><g transform="translate(1000, 0)"><path d="M0 400C-18.8 387.8 -37.6 375.6 -59.6 376.3C-81.6 377 -106.7 390.6 -123.6 380.4C-140.5 370.2 -149.1 336.1 -158 310.1C-166.9 284 -176.1 266 -178.1 245.1C-180.1 224.3 -174.8 200.6 -198.7 198.7C-222.6 196.8 -275.7 216.8 -279.1 202.8C-282.5 188.8 -236.1 140.9 -236.1 120.3C-236.1 99.7 -282.5 106.5 -308.1 100.1C-333.8 93.8 -338.8 74.4 -350.6 55.5C-362.5 36.7 -381.2 18.3 -400 0L0 0Z" fill="#000949"></path><path d="M0 320C-15 310.2 -30.1 300.5 -47.7 301C-65.3 301.6 -85.4 312.5 -98.9 304.3C-112.4 296.2 -119.3 268.9 -126.4 248.1C-133.5 227.2 -140.9 212.8 -142.5 196.1C-144.1 179.4 -139.8 160.5 -159 159C-178.1 157.5 -220.6 173.4 -223.3 162.2C-226 151 -188.9 112.7 -188.9 96.2C-188.9 79.8 -226 85.2 -246.5 80.1C-267 75 -271 59.5 -280.5 44.4C-290 29.3 -305 14.7 -320 0L0 0Z" fill="#001d60"></path><path d="M0 240C-11.3 232.7 -22.6 225.4 -35.8 225.8C-48.9 226.2 -64 234.4 -74.2 228.3C-84.3 222.1 -89.4 201.7 -94.8 186C-100.1 170.4 -105.7 159.6 -106.9 147.1C-108 134.6 -104.9 120.3 -119.2 119.2C-133.6 118.1 -165.4 130.1 -167.5 121.7C-169.5 113.3 -141.7 84.5 -141.7 72.2C-141.7 59.8 -169.5 63.9 -184.9 60.1C-200.3 56.3 -203.3 44.6 -210.4 33.3C-217.5 22 -228.7 11 -240 0L0 0Z" fill="#243077"></path><path d="M0 160C-7.5 155.1 -15 150.2 -23.8 150.5C-32.6 150.8 -42.7 156.3 -49.4 152.2C-56.2 148.1 -59.6 134.4 -63.2 124C-66.8 113.6 -70.5 106.4 -71.2 98.1C-72 89.7 -69.9 80.2 -79.5 79.5C-89 78.7 -110.3 86.7 -111.6 81.1C-113 75.5 -94.4 56.4 -94.4 48.1C-94.4 39.9 -113 42.6 -123.3 40C-133.5 37.5 -135.5 29.8 -140.3 22.2C-145 14.7 -152.5 7.3 -160 0L0 0Z" fill="#3e448f"></path><path d="M0 80C-3.8 77.6 -7.5 75.1 -11.9 75.3C-16.3 75.4 -21.3 78.1 -24.7 76.1C-28.1 74 -29.8 67.2 -31.6 62C-33.4 56.8 -35.2 53.2 -35.6 49C-36 44.9 -35 40.1 -39.7 39.7C-44.5 39.4 -55.1 43.4 -55.8 40.6C-56.5 37.8 -47.2 28.2 -47.2 24.1C-47.2 19.9 -56.5 21.3 -61.6 20C-66.8 18.8 -67.8 14.9 -70.1 11.1C-72.5 7.3 -76.2 3.7 -80 0L0 0Z" fill="#4b4f9b"></path></g><g transform="translate(0, 400)"><path d="M0 -400C19.5 -368.7 39 -337.3 47.9 -302.2C56.7 -267.1 54.8 -228.3 80.3 -247.3C105.9 -266.2 158.7 -343 177.5 -348.4C196.3 -353.8 180.9 -287.7 194 -267C207 -246.2 248.5 -270.7 265.2 -265.2C281.8 -259.6 273.5 -224.1 283.2 -205.7C292.8 -187.3 320.2 -186.1 345.7 -176.1C371.2 -166.2 394.7 -147.5 380.4 -123.6C366.2 -99.7 314.2 -70.7 311.1 -49.3C308.1 -27.8 354 -13.9 400 0L0 0Z" fill="#000949"></path><path d="M0 -320C15.6 -294.9 31.2 -269.9 38.3 -241.8C45.4 -213.7 43.9 -182.6 64.3 -197.8C84.7 -213 127 -274.4 142 -278.7C157 -283 144.7 -230.2 155.2 -213.6C165.6 -197 198.8 -216.6 212.1 -212.1C225.4 -207.7 218.8 -179.3 226.5 -164.6C234.2 -149.9 256.2 -148.9 276.6 -140.9C297 -132.9 315.7 -118 304.3 -98.9C292.9 -79.8 251.3 -56.6 248.9 -39.4C246.5 -22.3 283.2 -11.1 320 0L0 0Z" fill="#001d60"></path><path d="M0 -240C11.7 -221.2 23.4 -202.4 28.7 -181.3C34 -160.3 32.9 -137 48.2 -148.4C63.5 -159.7 95.2 -205.8 106.5 -209C117.8 -212.3 108.5 -172.6 116.4 -160.2C124.2 -147.7 149.1 -162.4 159.1 -159.1C169.1 -155.8 164.1 -134.5 169.9 -123.4C175.7 -112.4 192.1 -111.7 207.4 -105.7C222.7 -99.7 236.8 -88.5 228.3 -74.2C219.7 -59.8 188.5 -42.4 186.7 -29.6C184.9 -16.7 212.4 -8.3 240 0L0 0Z" fill="#243077"></path><path d="M0 -160C7.8 -147.5 15.6 -134.9 19.1 -120.9C22.7 -106.9 21.9 -91.3 32.1 -98.9C42.3 -106.5 63.5 -137.2 71 -139.4C78.5 -141.5 72.4 -115.1 77.6 -106.8C82.8 -98.5 99.4 -108.3 106.1 -106.1C112.7 -103.9 109.4 -89.6 113.3 -82.3C117.1 -74.9 128.1 -74.4 138.3 -70.5C148.5 -66.5 157.9 -59 152.2 -49.4C146.5 -39.9 125.7 -28.3 124.4 -19.7C123.2 -11.1 141.6 -5.6 160 0L0 0Z" fill="#3e448f"></path><path d="M0 -80C3.9 -73.7 7.8 -67.5 9.6 -60.4C11.3 -53.4 11 -45.7 16.1 -49.5C21.2 -53.2 31.7 -68.6 35.5 -69.7C39.3 -70.8 36.2 -57.5 38.8 -53.4C41.4 -49.2 49.7 -54.1 53 -53C56.4 -51.9 54.7 -44.8 56.6 -41.1C58.6 -37.5 64 -37.2 69.1 -35.2C74.2 -33.2 78.9 -29.5 76.1 -24.7C73.2 -19.9 62.8 -14.1 62.2 -9.9C61.6 -5.6 70.8 -2.8 80 0L0 0Z" fill="#4b4f9b"></path></g></svg>