<svg id="visual" viewBox="0 0 1000 400" width="1000" height="400" xmlns="http://www.w3.org/2000/svg" xmlns:xlink="http://www.w3.org/1999/xlink" version="1.1"><rect x="0" y="0" width="1000" height="400" fill="#000000"></rect><defs><linearGradient id="grad1_0" x1="60%" y1="100%" x2="100%" y2="0%"><stop offset="0%" stop-color="#4b4f9b" stop-opacity="1"></stop><stop offset="100%" stop-color="#4b4f9b" stop-opacity="1"></stop></linearGradient></defs><defs><linearGradient id="grad1_1" x1="60%" y1="100%" x2="100%" y2="0%"><stop offset="0%" stop-color="#4b4f9b" stop-opacity="1"></stop><stop offset="100%" stop-color="#323a83" stop-opacity="1"></stop></linearGradient></defs><defs><linearGradient id="grad1_2" x1="60%" y1="100%" x2="100%" y2="0%"><stop offset="0%" stop-color="#14266b" stop-opacity="1"></stop><stop offset="100%" stop-color="#323a83" stop-opacity="1"></stop></linearGradient></defs><defs><linearGradient id="grad1_3" x1="60%" y1="100%" x2="100%" y2="0%"><stop offset="0%" stop-color="#14266b" stop-opacity="1"></stop><stop offset="100%" stop-color="#001454" stop-opacity="1"></stop></linearGradient></defs><defs><linearGradient id="grad1_4" x1="60%" y1="100%" x2="100%" y2="0%"><stop offset="0%" stop-color="#000000" stop-opacity="1"></stop><stop offset="100%" stop-color="#001454" stop-opacity="1"></stop></linearGradient></defs><defs><linearGradient id="grad2_0" x1="0%" y1="100%" x2="40%" y2="0%"><stop offset="0%" stop-color="#4b4f9b" stop-opacity="1"></stop><stop offset="100%" stop-color="#4b4f9b" stop-opacity="1"></stop></linearGradient></defs><defs><linearGradient id="grad2_1" x1="0%" y1="100%" x2="40%" y2="0%"><stop offset="0%" stop-color="#323a83" stop-opacity="1"></stop><stop offset="100%" stop-color="#4b4f9b" stop-opacity="1"></stop></linearGradient></defs><defs><linearGradient id="grad2_2" x1="0%" y1="100%" x2="40%" y2="0%"><stop offset="0%" stop-color="#323a83" stop-opacity="1"></stop><stop offset="100%" stop-color="#14266b" stop-opacity="1"></stop></linearGradient></defs><defs><linearGradient id="grad2_3" x1="0%" y1="100%" x2="40%" y2="0%"><stop offset="0%" stop-color="#001454" stop-opacity="1"></stop><stop offset="100%" stop-color="#14266b" stop-opacity="1"></stop></linearGradient></defs><defs><linearGradient id="grad2_4" x1="0%" y1="100%" x2="40%" y2="0%"><stop offset="0%" stop-color="#001454" stop-opacity="1"></stop><stop offset="100%" stop-color="#000000" stop-opacity="1"></stop></linearGradient></defs><g transform="translate(1000, 400)"><path d="M-400 0C-404.2 -46.5 -408.4 -93 -380.4 -123.6C-352.5 -154.2 -292.4 -168.9 -250.8 -182.2C-209.1 -195.5 -185.9 -207.4 -165.2 -227.3C-144.5 -247.2 -126.3 -275.2 -99.2 -305.3C-72.1 -335.4 -36 -367.7 0 -400L0 0Z" fill="#000949"></path><path d="M-320 0C-323.3 -37.2 -326.7 -74.4 -304.3 -98.9C-282 -123.4 -234 -135.1 -200.6 -145.8C-167.3 -156.4 -148.7 -165.9 -132.1 -181.9C-115.6 -197.8 -101 -220.1 -79.4 -244.2C-57.7 -268.3 -28.8 -294.2 0 -320L0 0Z" fill="#001d60"></path><path d="M-240 0C-242.5 -27.9 -245 -55.8 -228.3 -74.2C-211.5 -92.5 -175.5 -101.3 -150.5 -109.3C-125.5 -117.3 -111.5 -124.5 -99.1 -136.4C-86.7 -148.3 -75.8 -165.1 -59.5 -183.2C-43.3 -201.2 -21.6 -220.6 0 -240L0 0Z" fill="#243077"></path><path d="M-160 0C-161.7 -18.6 -163.3 -37.2 -152.2 -49.4C-141 -61.7 -117 -67.6 -100.3 -72.9C-83.7 -78.2 -74.4 -83 -66.1 -90.9C-57.8 -98.9 -50.5 -110.1 -39.7 -122.1C-28.8 -134.2 -14.4 -147.1 0 -160L0 0Z" fill="#3e448f"></path><path d="M-80 0C-80.8 -9.3 -81.7 -18.6 -76.1 -24.7C-70.5 -30.8 -58.5 -33.8 -50.2 -36.4C-41.8 -39.1 -37.2 -41.5 -33 -45.5C-28.9 -49.4 -25.3 -55 -19.8 -61.1C-14.4 -67.1 -7.2 -73.5 0 -80L0 0Z" fill="#4b4f9b"></path></g><g transform="translate(0, 0)"><path d="M400 0C369.4 32.8 338.8 65.7 331.9 107.8C325 150 341.8 201.5 323.6 235.1C305.4 268.8 252.1 284.6 207.5 285.6C162.9 286.5 127.1 272.5 93.9 289.1C60.8 305.7 30.4 352.9 0 400L0 0Z" fill="#000949"></path><path d="M320 0C295.5 26.3 271 52.6 265.5 86.3C260 120 273.5 161.2 258.9 188.1C244.3 215 201.6 227.7 166 228.5C130.3 229.2 101.7 218 75.2 231.3C48.7 244.6 24.3 282.3 0 320L0 0Z" fill="#001d60"></path><path d="M240 0C221.6 19.7 203.3 39.4 199.2 64.7C195 90 205.1 120.9 194.2 141.1C183.2 161.3 151.2 170.8 124.5 171.3C97.7 171.9 76.2 163.5 56.4 173.5C36.5 183.4 18.2 211.7 0 240L0 0Z" fill="#243077"></path><path d="M160 0C147.8 13.1 135.5 26.3 132.8 43.1C130 60 136.7 80.6 129.4 94C122.1 107.5 100.8 113.9 83 114.2C65.2 114.6 50.8 109 37.6 115.6C24.3 122.3 12.2 141.1 0 160L0 0Z" fill="#3e448f"></path><path d="M80 0C73.9 6.6 67.8 13.1 66.4 21.6C65 30 68.4 40.3 64.7 47C61.1 53.8 50.4 56.9 41.5 57.1C32.6 57.3 25.4 54.5 18.8 57.8C12.2 61.1 6.1 70.6 0 80L0 0Z" fill="#4b4f9b"></path></g></svg>