<svg id="visual" viewBox="0 0 1000 400" width="1000" height="400" xmlns="http://www.w3.org/2000/svg" xmlns:xlink="http://www.w3.org/1999/xlink" version="1.1"><rect x="0" y="0" width="1000" height="400" fill="#000000"></rect><defs><linearGradient id="grad1_0" x1="60%" y1="0%" x2="100%" y2="100%"><stop offset="0%" stop-color="#4b4f9b" stop-opacity="1"></stop><stop offset="100%" stop-color="#4b4f9b" stop-opacity="1"></stop></linearGradient></defs><defs><linearGradient id="grad1_1" x1="60%" y1="0%" x2="100%" y2="100%"><stop offset="0%" stop-color="#4b4f9b" stop-opacity="1"></stop><stop offset="100%" stop-color="#323a83" stop-opacity="1"></stop></linearGradient></defs><defs><linearGradient id="grad1_2" x1="60%" y1="0%" x2="100%" y2="100%"><stop offset="0%" stop-color="#14266b" stop-opacity="1"></stop><stop offset="100%" stop-color="#323a83" stop-opacity="1"></stop></linearGradient></defs><defs><linearGradient id="grad1_3" x1="60%" y1="0%" x2="100%" y2="100%"><stop offset="0%" stop-color="#14266b" stop-opacity="1"></stop><stop offset="100%" stop-color="#001454" stop-opacity="1"></stop></linearGradient></defs><defs><linearGradient id="grad1_4" x1="60%" y1="0%" x2="100%" y2="100%"><stop offset="0%" stop-color="#000000" stop-opacity="1"></stop><stop offset="100%" stop-color="#001454" stop-opacity="1"></stop></linearGradient></defs><defs><linearGradient id="grad2_0" x1="0%" y1="0%" x2="40%" y2="100%"><stop offset="0%" stop-color="#4b4f9b" stop-opacity="1"></stop><stop offset="100%" stop-color="#4b4f9b" stop-opacity="1"></stop></linearGradient></defs><defs><linearGradient id="grad2_1" x1="0%" y1="0%" x2="40%" y2="100%"><stop offset="0%" stop-color="#323a83" stop-opacity="1"></stop><stop offset="100%" stop-color="#4b4f9b" stop-opacity="1"></stop></linearGradient></defs><defs><linearGradient id="grad2_2" x1="0%" y1="0%" x2="40%" y2="100%"><stop offset="0%" stop-color="#323a83" stop-opacity="1"></stop><stop offset="100%" stop-color="#14266b" stop-opacity="1"></stop></linearGradient></defs><defs><linearGradient id="grad2_3" x1="0%" y1="0%" x2="40%" y2="100%"><stop offset="0%" stop-color="#001454" stop-opacity="1"></stop><stop offset="100%" stop-color="#14266b" stop-opacity="1"></stop></linearGradient></defs><defs><linearGradient id="grad2_4" x1="0%" y1="0%" x2="40%" y2="100%"><stop offset="0%" stop-color="#001454" stop-opacity="1"></stop><stop offset="100%" stop-color="#000000" stop-opacity="1"></stop></linearGradient></defs><g transform="translate(1000, 0)"><path d="M0 400C-8.1 332.3 -16.1 264.6 -32.4 267C-48.7 269.4 -73.3 341.9 -88.3 358.3C-103.4 374.6 -108.9 334.8 -124.5 328.2C-140 321.5 -165.4 348 -185.9 354.2C-206.3 360.3 -221.8 346.2 -216.4 313.6C-211.1 280.9 -184.9 229.8 -192.3 217.1C-199.7 204.3 -240.8 229.8 -262 232.1C-283.2 234.4 -284.4 213.4 -280.6 193.7C-276.8 174 -268 155.5 -273.6 143.6C-279.3 131.7 -299.4 126.2 -302.9 114.9C-306.4 103.6 -293.3 86.4 -301 74.2C-308.7 62 -337.4 54.9 -357.4 43.4C-377.4 31.9 -388.7 15.9 -400 0L0 0Z" fill="#000949"></path><path d="M0 320C-6.5 265.9 -12.9 211.7 -25.9 213.6C-39 215.6 -58.6 273.5 -70.6 286.6C-82.7 299.7 -87.2 267.9 -99.6 262.6C-112 257.2 -132.3 278.4 -148.7 283.3C-165.1 288.3 -177.4 276.9 -173.1 250.8C-168.9 224.7 -147.9 183.9 -153.8 173.7C-159.8 163.4 -192.6 183.8 -209.6 185.7C-226.5 187.5 -227.5 170.7 -224.5 155C-221.5 139.2 -214.4 124.4 -218.9 114.9C-223.4 105.3 -239.6 101 -242.4 91.9C-245.2 82.9 -234.6 69.1 -240.8 59.4C-247 49.6 -269.9 43.9 -285.9 34.7C-301.9 25.5 -310.9 12.7 -320 0L0 0Z" fill="#001d60"></path><path d="M0 240C-4.8 199.4 -9.7 158.8 -19.5 160.2C-29.2 161.7 -44 205.2 -53 215C-62 224.8 -65.4 200.9 -74.7 196.9C-84 192.9 -99.3 208.8 -111.5 212.5C-123.8 216.2 -133.1 207.7 -129.9 188.1C-126.6 168.6 -110.9 137.9 -115.4 130.2C-119.8 122.6 -144.5 137.9 -157.2 139.3C-169.9 140.6 -170.7 128.1 -168.4 116.2C-166.1 104.4 -160.8 93.3 -164.2 86.2C-167.6 79 -179.7 75.7 -181.8 68.9C-183.9 62.1 -176 51.8 -180.6 44.5C-185.2 37.2 -202.4 32.9 -214.4 26C-226.4 19.1 -233.2 9.6 -240 0L0 0Z" fill="#243077"></path><path d="M0 160C-3.2 132.9 -6.5 105.9 -13 106.8C-19.5 107.8 -29.3 136.8 -35.3 143.3C-41.3 149.9 -43.6 133.9 -49.8 131.3C-56 128.6 -66.2 139.2 -74.4 141.7C-82.5 144.1 -88.7 138.5 -86.6 125.4C-84.4 112.4 -73.9 91.9 -76.9 86.8C-79.9 81.7 -96.3 91.9 -104.8 92.8C-113.3 93.8 -113.8 85.4 -112.3 77.5C-110.7 69.6 -107.2 62.2 -109.4 57.4C-111.7 52.7 -119.8 50.5 -121.2 46C-122.6 41.4 -117.3 34.5 -120.4 29.7C-123.5 24.8 -135 22 -143 17.4C-150.9 12.7 -155.5 6.4 -160 0L0 0Z" fill="#3e448f"></path><path d="M0 80C-1.6 66.5 -3.2 52.9 -6.5 53.4C-9.7 53.9 -14.7 68.4 -17.7 71.7C-20.7 74.9 -21.8 67 -24.9 65.6C-28 64.3 -33.1 69.6 -37.2 70.8C-41.3 72.1 -44.4 69.2 -43.3 62.7C-42.2 56.2 -37 46 -38.5 43.4C-39.9 40.9 -48.2 46 -52.4 46.4C-56.6 46.9 -56.9 42.7 -56.1 38.7C-55.4 34.8 -53.6 31.1 -54.7 28.7C-55.9 26.3 -59.9 25.2 -60.6 23C-61.3 20.7 -58.7 17.3 -60.2 14.8C-61.7 12.4 -67.5 11 -71.5 8.7C-75.5 6.4 -77.7 3.2 -80 0L0 0Z" fill="#4b4f9b"></path></g><g transform="translate(0, 400)"><path d="M0 -400C19.6 -415 39.1 -430.1 48.2 -397.1C57.3 -364.1 55.9 -283.1 62.7 -254.4C69.5 -225.6 84.5 -249.1 98.9 -260.9C113.4 -272.6 127.4 -272.6 145.5 -277.1C163.5 -281.7 185.6 -290.8 193.7 -280.6C201.8 -270.5 195.9 -241 196.3 -221.6C196.7 -202.1 203.5 -192.7 203.6 -180.4C203.7 -168 197.1 -152.8 223.9 -154.5C250.6 -156.2 310.6 -174.8 314.3 -165C318 -155.1 265.4 -116.8 262.7 -99.6C260.1 -82.5 307.4 -86.4 322.4 -79.5C337.3 -72.5 320 -54.8 327.6 -39.8C335.2 -24.7 367.6 -12.4 400 0L0 0Z" fill="#000949"></path><path d="M0 -320C15.7 -332 31.3 -344 38.6 -317.7C45.8 -291.3 44.7 -226.5 50.2 -203.5C55.6 -180.5 67.6 -199.3 79.1 -208.7C90.7 -218.1 101.9 -218.1 116.4 -221.7C130.8 -225.4 148.5 -232.6 155 -224.5C161.4 -216.4 156.7 -192.8 157 -177.2C157.4 -161.7 162.8 -154.2 162.9 -144.3C163 -134.4 157.7 -122.3 179.1 -123.6C200.5 -125 248.5 -139.9 251.5 -132C254.4 -124.1 212.3 -93.5 210.2 -79.7C208.1 -66 245.9 -69.1 257.9 -63.6C269.9 -58 256 -43.9 262.1 -31.8C268.1 -19.8 294.1 -9.9 320 0L0 0Z" fill="#001d60"></path><path d="M0 -240C11.7 -249 23.5 -258 28.9 -238.3C34.4 -218.5 33.5 -169.9 37.6 -152.6C41.7 -135.4 50.7 -149.5 59.4 -156.5C68 -163.6 76.4 -163.6 87.3 -166.3C98.1 -169 111.4 -174.5 116.2 -168.4C121.1 -162.3 117.5 -144.6 117.8 -132.9C118 -121.3 122.1 -115.6 122.2 -108.2C122.2 -100.8 118.3 -91.7 134.3 -92.7C150.4 -93.7 186.4 -104.9 188.6 -99C190.8 -93.1 159.2 -70.1 157.6 -59.8C156 -49.5 184.4 -51.8 193.4 -47.7C202.4 -43.5 192 -32.9 196.6 -23.9C201.1 -14.8 220.5 -7.4 240 0L0 0Z" fill="#243077"></path><path d="M0 -160C7.8 -166 15.7 -172 19.3 -158.8C22.9 -145.6 22.4 -113.3 25.1 -101.8C27.8 -90.3 33.8 -99.7 39.6 -104.3C45.4 -109 51 -109 58.2 -110.9C65.4 -112.7 74.2 -116.3 77.5 -112.3C80.7 -108.2 78.3 -96.4 78.5 -88.6C78.7 -80.8 81.4 -77.1 81.4 -72.1C81.5 -67.2 78.8 -61.1 89.5 -61.8C100.2 -62.5 124.3 -69.9 125.7 -66C127.2 -62.1 106.2 -46.7 105.1 -39.9C104 -33 122.9 -34.5 128.9 -31.8C134.9 -29 128 -21.9 131 -15.9C134.1 -9.9 147 -4.9 160 0L0 0Z" fill="#3e448f"></path><path d="M0 -80C3.9 -83 7.8 -86 9.6 -79.4C11.5 -72.8 11.2 -56.6 12.5 -50.9C13.9 -45.1 16.9 -49.8 19.8 -52.2C22.7 -54.5 25.5 -54.5 29.1 -55.4C32.7 -56.3 37.1 -58.2 38.7 -56.1C40.4 -54.1 39.2 -48.2 39.3 -44.3C39.3 -40.4 40.7 -38.5 40.7 -36.1C40.7 -33.6 39.4 -30.6 44.8 -30.9C50.1 -31.2 62.1 -35 62.9 -33C63.6 -31 53.1 -23.4 52.5 -19.9C52 -16.5 61.5 -17.3 64.5 -15.9C67.5 -14.5 64 -11 65.5 -8C67 -4.9 73.5 -2.5 80 0L0 0Z" fill="#4b4f9b"></path></g></svg>