<svg id="visual" viewBox="0 0 1000 100" width="1000" height="100" xmlns="http://www.w3.org/2000/svg" xmlns:xlink="http://www.w3.org/1999/xlink" version="1.1"><rect x="0" y="0" width="1000" height="100" fill="#333333"></rect><path d="M0 70L7.5 69.3C15 68.7 30 67.3 45.2 64.7C60.3 62 75.7 58 90.8 59.8C106 61.7 121 69.3 136.2 70C151.3 70.7 166.7 64.3 181.8 61.3C197 58.3 212 58.7 227.2 58.2C242.3 57.7 257.7 56.3 272.8 57.8C288 59.3 303 63.7 318.2 66.8C333.3 70 348.7 72 363.8 70C379 68 394 62 409.2 58.8C424.3 55.7 439.7 55.3 454.8 57.2C470 59 485 63 500 66.3C515 69.7 530 72.3 545.2 73C560.3 73.7 575.7 72.3 590.8 70.2C606 68 621 65 636.2 64C651.3 63 666.7 64 681.8 64.8C697 65.7 712 66.3 727.2 66.5C742.3 66.7 757.7 66.3 772.8 64.3C788 62.3 803 58.7 818.2 60.8C833.3 63 848.7 71 863.8 70.7C879 70.3 894 61.7 909.2 59.2C924.3 56.7 939.7 60.3 954.8 60C970 59.7 985 55.3 992.5 53.2L1000 51L1000 101L992.5 101C985 101 970 101 954.8 101C939.7 101 924.3 101 909.2 101C894 101 879 101 863.8 101C848.7 101 833.3 101 818.2 101C803 101 788 101 772.8 101C757.7 101 742.3 101 727.2 101C712 101 697 101 681.8 101C666.7 101 651.3 101 636.2 101C621 101 606 101 590.8 101C575.7 101 560.3 101 545.2 101C530 101 515 101 500 101C485 101 470 101 454.8 101C439.7 101 424.3 101 409.2 101C394 101 379 101 363.8 101C348.7 101 333.3 101 318.2 101C303 101 288 101 272.8 101C257.7 101 242.3 101 227.2 101C212 101 197 101 181.8 101C166.7 101 151.3 101 136.2 101C121 101 106 101 90.8 101C75.7 101 60.3 101 45.2 101C30 101 15 101 7.5 101L0 101Z" fill="#4b4f9b"></path><path d="M0 74L7.5 74C15 74 30 74 45.2 71.8C60.3 69.7 75.7 65.3 90.8 63C106 60.7 121 60.3 136.2 62.5C151.3 64.7 166.7 69.3 181.8 72.5C197 75.7 212 77.3 227.2 76.5C242.3 75.7 257.7 72.3 272.8 71.3C288 70.3 303 71.7 318.2 72.3C333.3 73 348.7 73 363.8 71.8C379 70.7 394 68.3 409.2 67C424.3 65.7 439.7 65.3 454.8 66.5C470 67.7 485 70.3 500 72.3C515 74.3 530 75.7 545.2 76.8C560.3 78 575.7 79 590.8 78.8C606 78.7 621 77.3 636.2 75.3C651.3 73.3 666.7 70.7 681.8 71.8C697 73 712 78 727.2 77.8C742.3 77.7 757.7 72.3 772.8 71.8C788 71.3 803 75.7 818.2 76.2C833.3 76.7 848.7 73.3 863.8 73C879 72.7 894 75.3 909.2 74.8C924.3 74.3 939.7 70.7 954.8 71.7C970 72.7 985 78.3 992.5 81.2L1000 84L1000 101L992.5 101C985 101 970 101 954.8 101C939.7 101 924.3 101 909.2 101C894 101 879 101 863.8 101C848.7 101 833.3 101 818.2 101C803 101 788 101 772.8 101C757.7 101 742.3 101 727.2 101C712 101 697 101 681.8 101C666.7 101 651.3 101 636.2 101C621 101 606 101 590.8 101C575.7 101 560.3 101 545.2 101C530 101 515 101 500 101C485 101 470 101 454.8 101C439.7 101 424.3 101 409.2 101C394 101 379 101 363.8 101C348.7 101 333.3 101 318.2 101C303 101 288 101 272.8 101C257.7 101 242.3 101 227.2 101C212 101 197 101 181.8 101C166.7 101 151.3 101 136.2 101C121 101 106 101 90.8 101C75.7 101 60.3 101 45.2 101C30 101 15 101 7.5 101L0 101Z" fill="#5055ab"></path><path d="M0 68L7.5 69.8C15 71.7 30 75.3 45.2 75.7C60.3 76 75.7 73 90.8 71.5C106 70 121 70 136.2 73C151.3 76 166.7 82 181.8 82.3C197 82.7 212 77.3 227.2 76.5C242.3 75.7 257.7 79.3 272.8 79.2C288 79 303 75 318.2 72.8C333.3 70.7 348.7 70.3 363.8 70.5C379 70.7 394 71.3 409.2 73.2C424.3 75 439.7 78 454.8 77.8C470 77.7 485 74.3 500 73C515 71.7 530 72.3 545.2 71.8C560.3 71.3 575.7 69.7 590.8 71.2C606 72.7 621 77.3 636.2 80.2C651.3 83 666.7 84 681.8 84.7C697 85.3 712 85.7 727.2 83.5C742.3 81.3 757.7 76.7 772.8 73.5C788 70.3 803 68.7 818.2 69.5C833.3 70.3 848.7 73.7 863.8 76.3C879 79 894 81 909.2 81.5C924.3 82 939.7 81 954.8 80.8C970 80.7 985 81.3 992.5 81.7L1000 82L1000 101L992.5 101C985 101 970 101 954.8 101C939.7 101 924.3 101 909.2 101C894 101 879 101 863.8 101C848.7 101 833.3 101 818.2 101C803 101 788 101 772.8 101C757.7 101 742.3 101 727.2 101C712 101 697 101 681.8 101C666.7 101 651.3 101 636.2 101C621 101 606 101 590.8 101C575.7 101 560.3 101 545.2 101C530 101 515 101 500 101C485 101 470 101 454.8 101C439.7 101 424.3 101 409.2 101C394 101 379 101 363.8 101C348.7 101 333.3 101 318.2 101C303 101 288 101 272.8 101C257.7 101 242.3 101 227.2 101C212 101 197 101 181.8 101C166.7 101 151.3 101 136.2 101C121 101 106 101 90.8 101C75.7 101 60.3 101 45.2 101C30 101 15 101 7.5 101L0 101Z" fill="#555abb"></path><path d="M0 81L7.5 82.3C15 83.7 30 86.3 45.2 86.5C60.3 86.7 75.7 84.3 90.8 84C106 83.7 121 85.3 136.2 84.3C151.3 83.3 166.7 79.7 181.8 80.3C197 81 212 86 227.2 88.5C242.3 91 257.7 91 272.8 88.7C288 86.3 303 81.7 318.2 79.5C333.3 77.3 348.7 77.7 363.8 77.8C379 78 394 78 409.2 78.2C424.3 78.3 439.7 78.7 454.8 78.3C470 78 485 77 500 78.7C515 80.3 530 84.7 545.2 87.2C560.3 89.7 575.7 90.3 590.8 90.7C606 91 621 91 636.2 89.2C651.3 87.3 666.7 83.7 681.8 83.2C697 82.7 712 85.3 727.2 86C742.3 86.7 757.7 85.3 772.8 84.3C788 83.3 803 82.7 818.2 81.3C833.3 80 848.7 78 863.8 77.8C879 77.7 894 79.3 909.2 81.7C924.3 84 939.7 87 954.8 88.5C970 90 985 90 992.5 90L1000 90L1000 101L992.5 101C985 101 970 101 954.8 101C939.7 101 924.3 101 909.2 101C894 101 879 101 863.8 101C848.7 101 833.3 101 818.2 101C803 101 788 101 772.8 101C757.7 101 742.3 101 727.2 101C712 101 697 101 681.8 101C666.7 101 651.3 101 636.2 101C621 101 606 101 590.8 101C575.7 101 560.3 101 545.2 101C530 101 515 101 500 101C485 101 470 101 454.8 101C439.7 101 424.3 101 409.2 101C394 101 379 101 363.8 101C348.7 101 333.3 101 318.2 101C303 101 288 101 272.8 101C257.7 101 242.3 101 227.2 101C212 101 197 101 181.8 101C166.7 101 151.3 101 136.2 101C121 101 106 101 90.8 101C75.7 101 60.3 101 45.2 101C30 101 15 101 7.5 101L0 101Z" fill="#5a60cb"></path><path d="M0 84L7.5 83.8C15 83.7 30 83.3 45.2 85.2C60.3 87 75.7 91 90.8 91.3C106 91.7 121 88.3 136.2 87.8C151.3 87.3 166.7 89.7 181.8 90C197 90.3 212 88.7 227.2 89.2C242.3 89.7 257.7 92.3 272.8 92.5C288 92.7 303 90.3 318.2 88.5C333.3 86.7 348.7 85.3 363.8 87C379 88.7 394 93.3 409.2 93.7C424.3 94 439.7 90 454.8 88.5C470 87 485 88 500 89C515 90 530 91 545.2 91.7C560.3 92.3 575.7 92.7 590.8 92.2C606 91.7 621 90.3 636.2 89.7C651.3 89 666.7 89 681.8 88.5C697 88 712 87 727.2 88.3C742.3 89.7 757.7 93.3 772.8 94.3C788 95.3 803 93.7 818.2 93.7C833.3 93.7 848.7 95.3 863.8 96.3C879 97.3 894 97.7 909.2 95.7C924.3 93.7 939.7 89.3 954.8 89C970 88.7 985 92.3 992.5 94.2L1000 96L1000 101L992.5 101C985 101 970 101 954.8 101C939.7 101 924.3 101 909.2 101C894 101 879 101 863.8 101C848.7 101 833.3 101 818.2 101C803 101 788 101 772.8 101C757.7 101 742.3 101 727.2 101C712 101 697 101 681.8 101C666.7 101 651.3 101 636.2 101C621 101 606 101 590.8 101C575.7 101 560.3 101 545.2 101C530 101 515 101 500 101C485 101 470 101 454.8 101C439.7 101 424.3 101 409.2 101C394 101 379 101 363.8 101C348.7 101 333.3 101 318.2 101C303 101 288 101 272.8 101C257.7 101 242.3 101 227.2 101C212 101 197 101 181.8 101C166.7 101 151.3 101 136.2 101C121 101 106 101 90.8 101C75.7 101 60.3 101 45.2 101C30 101 15 101 7.5 101L0 101Z" fill="#6066db"></path></svg>