<svg id="visual" viewBox="0 0 1600 198" width="1600" height="198" xmlns="http://www.w3.org/2000/svg" xmlns:xlink="http://www.w3.org/1999/xlink" version="1.1"><rect x="0" y="0" width="1600" height="198" fill="#333333"></rect><path d="M0 24L38.2 28.5C76.3 33 152.7 42 228.8 45.5C305 49 381 47 457.2 42.8C533.3 38.7 609.7 32.3 685.8 29.7C762 27 838 28 914.2 33.3C990.3 38.7 1066.7 48.3 1142.8 55.5C1219 62.7 1295 67.3 1371.2 63.2C1447.3 59 1523.7 46 1561.8 39.5L1600 33L1600 0L1561.8 0C1523.7 0 1447.3 0 1371.2 0C1295 0 1219 0 1142.8 0C1066.7 0 990.3 0 914.2 0C838 0 762 0 685.8 0C609.7 0 533.3 0 457.2 0C381 0 305 0 228.8 0C152.7 0 76.3 0 38.2 0L0 0Z" fill="#4B4F9B" stroke-linecap="round" stroke-linejoin="miter"></path></svg>