<svg id="visual" viewBox="0 0 900 450" width="900" height="450" xmlns="http://www.w3.org/2000/svg" xmlns:xlink="http://www.w3.org/1999/xlink" version="1.1"><path d="M0 58L16.7 53.2C33.3 48.3 66.7 38.7 100 54.7C133.3 70.7 166.7 112.3 200 118.3C233.3 124.3 266.7 94.7 300 76C333.3 57.3 366.7 49.7 400 52.2C433.3 54.7 466.7 67.3 500 70.5C533.3 73.7 566.7 67.3 600 61.5C633.3 55.7 666.7 50.3 700 56.8C733.3 63.3 766.7 81.7 800 85.3C833.3 89 866.7 78 883.3 72.5L900 67L900 0L883.3 0C866.7 0 833.3 0 800 0C766.7 0 733.3 0 700 0C666.7 0 633.3 0 600 0C566.7 0 533.3 0 500 0C466.7 0 433.3 0 400 0C366.7 0 333.3 0 300 0C266.7 0 233.3 0 200 0C166.7 0 133.3 0 100 0C66.7 0 33.3 0 16.7 0L0 0Z" fill="#4B4F9B" stroke-linecap="round" stroke-linejoin="miter"></path></svg>